<?xml version="1.0" encoding="utf-8"?>
<!-- Generator: Adobe Illustrator 16.0.0, SVG Export Plug-In . SVG Version: 6.00 Build 0)  -->
<!DOCTYPE svg PUBLIC "-//W3C//DTD SVG 1.1//EN" "http://www.w3.org/Graphics/SVG/1.1/DTD/svg11.dtd">
<svg version="1.1" id="Capa_1" xmlns="http://www.w3.org/2000/svg" xmlns:xlink="http://www.w3.org/1999/xlink" x="0px" y="0px"
	 width="99.701px" height="99.914px" viewBox="0 0 99.701 99.914" enable-background="new 0 0 99.701 99.914" xml:space="preserve">
<g>
	<path fill-rule="evenodd" clip-rule="evenodd" d="M87.072,25.863c-17.845-1.617-35.659-3.587-53.514-5.082
		c-4.497-0.377-7.241-1.527-7.369-6.442c-0.136-5.248-2.943-8.069-8.153-8.629c-1.163-0.125-2.273-0.685-3.435-0.881
		c-2.72-0.46-6.432-2.859-7.565,1.368c-1.16,4.324,3.273,4.273,5.883,4.726c4.544,0.786,6.46,2.959,7.391,7.636
		c2.771,13.922,6.323,27.688,9.364,41.56c0.711,3.249,2.236,4.438,5.46,4.376c7.112-0.137,14.229-0.042,21.343-0.042
		c0,0.021,0,0.04,0,0.061c3.113,0,6.226-0.018,9.338,0.003c4.593,0.03,9.186,0.151,13.778,0.103c1.943-0.021,3.575-0.876,3.569-3.12
		c-0.006-2.178-1.531-3.067-3.503-3.25c-1.029-0.096-2.073-0.039-3.111-0.042c-12.303-0.024-24.608-0.2-36.907,0.022
		c-3.611,0.066-4.373-1.857-4.363-4.485c0.012-3.083,2.661-1.663,4.042-1.675c13.785-0.123,27.571-0.163,41.354-0.012
		c3.466,0.039,5.014-1.015,5.528-4.6c0.861-5.998,2.105-11.96,3.569-17.841C90.469,26.808,89.928,26.12,87.072,25.863z"/>
	<path fill-rule="evenodd" clip-rule="evenodd" d="M45.457,69.185c0.132-0.244-0.26-0.411-0.305-0.212
		C45.37,68.971,45.238,69.186,45.457,69.185z"/>
	<path fill-rule="evenodd" clip-rule="evenodd" d="M44.754,69.164c-0.135,0.277,0.079,0.334,0.176,0.466
		C44.967,69.414,44.975,69.218,44.754,69.164z"/>
	<path fill-rule="evenodd" clip-rule="evenodd" d="M47.787,71.35c0.232,0.122,0.343-0.27,0.145-0.32
		C47.861,71.161,47.689,71.203,47.787,71.35z"/>
	<path fill-rule="evenodd" clip-rule="evenodd" d="M47.958,71.531c0.005,0.278-0.239,0.356-0.125,0.537
		c0.398-0.045,0.112-0.323,0.429-0.325c-0.051-0.186-0.267,0.016-0.252-0.129C48.081,71.626,48.082,71.54,47.958,71.531z"/>
	<path fill-rule="evenodd" clip-rule="evenodd" d="M48.913,73.521c0.011-0.045,0.021-0.091,0.032-0.136
		c-0.068-0.014-0.068-0.073-0.119-0.097c-0.044,0.184-0.354,0.086-0.419-0.026c0.082,0.287,0.198,0.151-0.078,0.335
		c0.239,0.122,0.314,0.076,0.455,0.176C48.845,73.653,48.644,73.438,48.913,73.521z"/>
	<path fill-rule="evenodd" clip-rule="evenodd" d="M49.171,73.933c-0.029,0.076-0.123,0.051-0.217,0.021
		c-0.081,0.155,0.262,0.327,0.304,0.212C49.148,74.139,49.265,73.971,49.171,73.933z"/>
	<path fill-rule="evenodd" clip-rule="evenodd" d="M49.166,75.49c0.152-0.177,0.266-0.056,0.403,0.092
		c0.029-0.037,0.227-0.221,0.062-0.268c-0.147,0.127-0.377-0.02-0.17-0.183C49.169,75.094,49.103,75.337,49.166,75.49z"/>
	<path fill-rule="evenodd" clip-rule="evenodd" d="M49.771,76.548c0.021-0.09,0.042-0.179,0.062-0.269
		c-0.067-0.014-0.134-0.03-0.202-0.045C49.572,76.404,49.531,76.564,49.771,76.548z"/>
	<path fill-rule="evenodd" clip-rule="evenodd" d="M50.019,76.394c-0.074,0.064-0.13,0.16-0.145,0.32
		c0.229-0.028,0.139,0.145,0.238,0.196c-0.029-0.205,0.318-0.189,0.227-0.372C50.253,76.696,50.188,76.373,50.019,76.394z"/>
	<path fill-rule="evenodd" clip-rule="evenodd" d="M49.471,77.541c-0.018,0.092-0.066,0.141-0.114,0.186
		c0.049,0.028,0.132,0.033,0.119,0.099c-0.042-0.007-0.082-0.009-0.083,0.05c0.067,0.015,0.134,0.031,0.201,0.047
		C49.538,77.706,49.764,77.64,49.471,77.541z"/>
	<path fill-rule="evenodd" clip-rule="evenodd" d="M49.031,79.138c0.203-0.012,0.152,0.134,0.32,0.145
		c0.058-0.093,0.139-0.146,0.196-0.238c-0.093-0.017-0.14-0.066-0.186-0.113C49.304,79.084,49.12,79.033,49.031,79.138z"/>
	<path fill-rule="evenodd" clip-rule="evenodd" d="M49.083,80.139c-0.123-0.018-0.141-0.102-0.087-0.231
		c-0.089-0.021-0.179-0.042-0.269-0.063c-0.016,0.065-0.031,0.133-0.047,0.202c0.284-0.024,0.184,0.236,0.072,0.299
		C48.925,80.377,49.036,80.309,49.083,80.139z"/>
	<path fill-rule="evenodd" clip-rule="evenodd" d="M30.848,76.072c-0.086-0.044-0.106-0.125-0.254-0.13
		c-0.059,0.172-0.042,0.295,0.14,0.316C30.753,76.165,30.8,76.117,30.848,76.072z"/>
	<path fill-rule="evenodd" clip-rule="evenodd" d="M49.408,80.568c0.061-0.172-0.042-0.242-0.222-0.263
		C49.081,80.53,49.293,80.646,49.408,80.568z"/>
	<path fill-rule="evenodd" clip-rule="evenodd" d="M48.892,81.581c0.168,0.128,0.294,0.242,0.522,0.191
		C49.525,81.449,49.01,81.484,48.892,81.581z"/>
	<path fill-rule="evenodd" clip-rule="evenodd" d="M52.193,82.909c0.032,0.049,0.282,0.231,0.335,0.078
		C52.514,82.843,52.273,82.702,52.193,82.909z"/>
	<path fill-rule="evenodd" clip-rule="evenodd" d="M30.698,77.947c-0.032,0.172,0.038,0.283,0.207,0.33
		c0.01-0.168,0.156-0.118,0.145-0.32C30.898,77.9,30.79,77.909,30.698,77.947z"/>
	<path fill-rule="evenodd" clip-rule="evenodd" d="M47.729,82.94c0.041,0.012,0.078,0.028,0.052,0.082
		c-0.067-0.016-0.135-0.03-0.202-0.045c-0.012,0.103-0.082,0.242,0.005,0.283c-0.006-0.193,0.306,0.122,0.299-0.071
		C47.77,83.175,47.946,82.701,47.729,82.94z"/>
	<path fill-rule="evenodd" clip-rule="evenodd" d="M50.101,83.7c0.08-0.204,0.011-0.313-0.207-0.33
		C49.814,83.573,49.883,83.682,50.101,83.7z"/>
	<path fill-rule="evenodd" clip-rule="evenodd" d="M48.204,83.333c0.021-0.09,0.042-0.179,0.063-0.27
		c-0.067-0.016-0.135-0.031-0.202-0.045C48.005,83.189,47.964,83.349,48.204,83.333z"/>
	<path fill-rule="evenodd" clip-rule="evenodd" d="M48.25,84.051c0.01-0.137,0.122-0.111,0.181-0.17
		c-0.313-0.002-0.178-0.03-0.388-0.16C47.946,83.934,48.1,83.992,48.25,84.051z"/>
	<path fill-rule="evenodd" clip-rule="evenodd" d="M31.799,80.535c-0.128,0.011-0.287-0.029-0.367,0.058
		c0.069,0.021,0.033,0.099-0.083,0.052c-0.065,0.41,0.428,0.158,0.554,0.057C31.821,80.674,31.747,80.645,31.799,80.535z"/>
	<path fill-rule="evenodd" clip-rule="evenodd" d="M48.597,84.697c0.343-0.022,0.102,0.32,0.424,0.31
		c-0.037-0.226-0.147-0.405-0.294-0.563C48.684,84.53,48.601,84.549,48.597,84.697z"/>
	<path fill-rule="evenodd" clip-rule="evenodd" d="M47.977,84.625c-0.062,0.172,0.042,0.243,0.222,0.264
		C48.26,84.716,48.157,84.647,47.977,84.625z"/>
	<path fill-rule="evenodd" clip-rule="evenodd" d="M46.044,85.027c0.082,0.237,0.075,0.528,0.346,0.646
		C46.349,85.412,46.299,85.156,46.044,85.027z"/>
	<path fill-rule="evenodd" clip-rule="evenodd" d="M32.857,83.611c-0.088,0.254-0.271,0.127-0.351-0.01
		c-0.014,0.162,0.002,0.304,0.124,0.382C32.725,83.941,33.193,83.753,32.857,83.611z"/>
	<path fill-rule="evenodd" clip-rule="evenodd" d="M43.993,86.252c0.128,0.21,0.216,0.091,0.438,0.242
		C44.576,86.267,44.096,86.136,43.993,86.252z"/>
	<path fill-rule="evenodd" clip-rule="evenodd" d="M43.719,86.826c0.042-0.181,0.246-0.098,0.279-0.29
		C43.832,86.463,43.563,86.686,43.719,86.826z"/>
	<path fill-rule="evenodd" clip-rule="evenodd" d="M45.347,87.13c-0.01,0.045-0.021,0.09-0.031,0.134
		c0.085,0.024,0.073,0.108,0.186,0.115c0.022-0.119,0.064-0.205,0.13-0.254C45.507,87.082,45.465,87.167,45.347,87.13z"/>
	<path fill-rule="evenodd" clip-rule="evenodd" d="M33.818,84.965c0.077-0.136,0.348-0.36,0.108-0.471
		C33.815,84.729,33.611,84.774,33.818,84.965z"/>
	<path fill-rule="evenodd" clip-rule="evenodd" d="M44.029,87.321c0.146,0.063-0.126,0.386,0.207,0.331
		C44.33,87.473,44.202,87.144,44.029,87.321z"/>
	<path fill-rule="evenodd" clip-rule="evenodd" d="M35.523,85.853c-0.021,0.09-0.041,0.179-0.062,0.269
		c0.205,0.05,0.356,0.018,0.45-0.109C35.694,86.015,35.74,85.851,35.523,85.853z"/>
	<path fill-rule="evenodd" clip-rule="evenodd" d="M44.271,88.722c0.042-0.087,0.125-0.106,0.129-0.254
		c-0.067-0.015-0.135-0.031-0.202-0.047C44.145,88.571,44.157,88.679,44.271,88.722z"/>
	<path fill-rule="evenodd" clip-rule="evenodd" d="M35.89,90.396c-0.026,0.111-0.052,0.222-0.078,0.335
		C35.995,90.882,36.12,90.34,35.89,90.396z"/>
	<path fill-rule="evenodd" clip-rule="evenodd" d="M35.523,92.292c-0.13,0.075-0.187,0.36,0.057,0.367
		C35.709,92.582,35.767,92.299,35.523,92.292z"/>
	<path fill-rule="evenodd" clip-rule="evenodd" d="M47.099,84.14c0.006-0.231,0.327-0.353,0.14-0.605
		c0.091-0.039,0.2-0.047,0.351,0.01c0.091,0.235-0.213,0.358,0.108,0.448c0.212-0.585-0.625-0.554-0.455-1.095
		c0.079-0.25,0.392-0.308,0.868-0.082c0.297-0.419-0.128-0.145-0.062-0.652c0.093,0.019,0.14,0.066,0.187,0.113
		c0.004-0.192-0.158-0.285-0.094-0.516c0.34,0.04-0.062-0.051-0.036-0.149c0.096,0,0.15-0.066,0.284-0.005
		c-0.026,0.111-0.052,0.224-0.078,0.335c0.116,0.033,0.212,0.033,0.284-0.005c0.043,0.234-0.037,0.228-0.108,0.471
		c0.124,0.043,0.167-0.042,0.285-0.006c0.168-0.278-0.149-0.251-0.026-0.502c0.053,0.056,0.212,0.214,0.218-0.019
		c-0.001-0.122-0.09-0.007-0.202-0.047c0.2-0.119-0.041-0.168-0.072-0.3c0.091-0.099,0.245-0.097,0.382-0.124
		c-0.182-0.262,0.317-0.42,0.042-0.486c-0.146,0.012-0.117,0.304-0.279,0.29c-0.249-0.094-0.413-0.24-0.542-0.408
		c0.105-0.047,0.174-0.151,0.315-0.139c-0.177,0.194,0.176,0.339,0.238,0.196c-0.147-0.215-0.158-0.156,0.01-0.351
		c-0.17-0.048-0.206-0.177-0.29-0.279c0.084,0.01,0.164,0.015,0.166-0.103c-0.407-0.181,0.042-0.559-0.249-0.766
		c0.189-0.089,0.441,0.151,0.574,0.274c-0.026,0.111-0.195-0.005-0.232,0.088c0.113,0.19,0.267,0.037,0.47,0.108
		c-0.009-0.321,0.333-0.082,0.311-0.424c-0.227,0.243-0.417-0.014-0.719,0.046c0.167-0.238-0.142-0.179-0.14-0.314
		c0.411-0.113,0.861-0.49,1.288-0.057c0.062-0.301-0.402-0.337-0.558-0.341c0.046-0.256-0.05-0.333-0.042-0.435
		c-0.271,0.386-0.332-0.403-0.553-0.057c0.114-0.186-0.123-0.153-0.238-0.196c0.126-0.146-0.132-0.323,0.078-0.335
		c0,0.096,0.065,0.149,0.005,0.284c0.304,0.118,0.454-0.009,0.651-0.061c-0.292-0.059-0.255-0.323-0.424-0.311
		c0.032-0.132,0.203-0.042,0.197-0.237c-0.368-0.109-0.11-0.302-0.46-0.46c0.167-0.106,0.059-0.175-0.005-0.283
		c0.363,0.059,0.507,0.257,0.594,0.49c-0.015-0.21-0.013-0.221,0.092-0.403c-0.544-0.052,0.093-0.419-0.227-0.547
		c-0.183,0.101-0.327,0.263-0.604,0.212c-0.006-0.046-0.014-0.092-0.021-0.138c0.048-0.067,0.104-0.121,0.103-0.266
		c0.123,0.043,0.166-0.042,0.284-0.005c-0.008,0.082-0.055,0.188,0.021,0.217c0.016-0.219,0.319,0.021,0.382-0.125
		c-0.192-0.251,0.161-0.255,0.196-0.236c-0.082-0.122-0.07-0.302-0.356-0.295c-0.1,0.178,0.054,0.197-0.011,0.352
		c-0.124-0.044-0.166,0.042-0.284,0.005c-0.03-0.254-0.196-0.097-0.392-0.017c-0.01-0.052-0.02-0.104-0.031-0.156
		c0.216-0.038,0.406-0.116,0.583-0.214c-0.374-0.024-0.058-0.249,0.01-0.352c-0.246,0.022-0.467,0.085-0.711,0.111
		c-0.018-0.065-0.031-0.131-0.051-0.195c0.003-0.008,0.004-0.01,0.007-0.018c0.09,0.021,0.179,0.04,0.269,0.061
		c0.031-0.103,0.044-0.234,0.181-0.17c-0.229-0.363,0.113-0.351,0.273-0.573c-0.209-0.061-0.389-0.139-0.34-0.362
		c-0.324-0.12-0.278-0.099-0.553-0.057c0.089-0.071,0.123-0.233,0.212-0.304c-0.165,0.09-0.345,0.158-0.539,0.201
		c-0.022-0.045-0.043-0.09-0.066-0.135c0.125,0.04,0.273,0.115,0.305,0.005c-0.075-0.145-0.195-0.261-0.093-0.516
		c-0.15-0.058-0.26-0.049-0.352-0.011c0.012-0.141-0.093-0.21-0.139-0.314c0.218-0.004,0.086,0.213,0.305,0.211
		c-0.052-0.325-0.056-0.319-0.228-0.547c0.174-0.115,0.215,0.058,0.32,0.145c-0.231-0.339,0.184-0.395-0.145-0.6
		c-0.055,0.188-0.049,0.475-0.243,0.438c0.116-0.196-0.253-0.339-0.093-0.517c-0.183-0.105-0.192-0.107-0.402-0.092
		c-0.007-0.287,0.173-0.274,0.294-0.356c-0.126-0.332-0.736-0.143-0.729-0.523c-0.027,0.049-0.075,0.066-0.15,0.037
		c-0.106,0.202,0,0.27,0.057,0.367c-0.089-0.019-0.088,0.104-0.165,0.104c0.195-0.276-0.215-0.173-0.207-0.332
		c0.341,0.049,0.006-0.149-0.021-0.217c-0.028-0.266,0.431-0.219,0.243-0.438c-0.055,0.151-0.215,0.113-0.284,0.005
		c-0.047,0.17-0.112,0.311-0.228,0.372c-0.193,0.005,0.121-0.306-0.072-0.301c-0.016,0.068-0.137,0.058-0.134-0.031
		c0.082-0.144,0.265-0.126,0.346-0.273c-0.304-0.021-0.063-0.382-0.243-0.481c-0.217,0.21-0.281,0.63-0.594,0.429
		c0.108-0.193,0.253-0.333,0.393-0.476c-0.363-0.149-0.501,0.057-0.734,0.114c0.126,0.026,0.13,0.083,0.036,0.149
		c0.131,0.129,0.292-0.114,0.269,0.063c-0.031,0.071-0.099,0.086-0.166,0.103c-0.191-0.155-0.288-0.456-0.294-0.563
		c-0.088,0.075-0.158,0.177-0.263,0.223c0.002-0.212-0.15-0.327-0.161-0.532c-0.396-0.125-0.794,0.087-0.94-0.217
		c0.18,0.096,0.59-0.13,0.729-0.398c-0.049-0.026-0.132-0.033-0.119-0.097c-0.221-0.016-0.341,0.128-0.584,0.076
		c0.004,0.208,0.143,0.262-0.011,0.351c0.037-0.229-0.446-0.325-0.16-0.532c-0.317-0.099-0.407,0.316-0.47-0.107
		c-0.195,0.08-0.124,0.086-0.062,0.268c-0.235,0.226-0.353-0.208-0.435,0.042c0.263-0.049-0.012,0.238,0.155,0.249
		c-0.009-0.257,0.332-0.063,0.269,0.061c-0.374-0.101-0.099,0.095-0.129,0.253c-0.259-0.15-0.321-0.021-0.356,0.087
		c-0.092-0.021-0.183-0.047-0.276-0.065c-0.014-0.002-0.026-0.004-0.041-0.006c-0.111-0.021-0.226-0.033-0.339-0.05
		c-0.068-0.027-0.122-0.075-0.146-0.163c0.164,0.075,0.215,0.143,0.352,0.011c-0.087-0.061-0.139-0.143-0.155-0.249
		c0.115,0.031,0.185-0.012,0.233-0.086c-0.247-0.087,0.104-0.372-0.243-0.482c-0.019,0.094-0.066,0.141-0.114,0.186
		c0.123,0.019,0.142,0.103,0.088,0.233c-0.283-0.146-0.24,0.229-0.362,0.341c-0.02,0.088,0.104,0.088,0.104,0.165
		c-0.35,0.04-0.116-0.438-0.026-0.5c-0.354,0.029-0.284-0.205-0.341-0.361c-0.027,0.048-0.033,0.132-0.099,0.118
		c0.123,0.254,0.02,0.291-0.124,0.537c0.018,0.098,0.219,0.079,0.23,0.178c-0.01-0.001-0.021,0-0.031-0.001
		c-0.208-0.144-0.311,0.08-0.432-0.088c0.071-0.132,0.211-0.153,0.227-0.372c-0.259,0.008-0.272-0.475-0.491-0.325
		c0.192,0.313-0.206,0.61,0.161,0.532c-0.018,0.217-0.213,0.149-0.331,0.207c-0.013-0.13-0.12-0.493-0.273-0.346
		c0.084,0.08,0.189,0.149,0.139,0.315c-0.366-0.108-0.42-0.414-0.346-0.647c-0.329,0.245-0.409-0.318-0.62-0.071
		c0.102,0.146,0.396,0.174,0.326,0.427c-0.03,0.104-0.184,0.014-0.181,0.172c0.051,0.185,0.23-0.075,0.253,0.129
		c-0.101,0.006-0.179,0.051-0.25,0.105c-0.045,0.005-0.089,0.013-0.134,0.02c0,0,0.001-0.001,0.002-0.001
		c-0.085-0.082-0.19-0.149-0.139-0.314c-0.262,0.066-0.509,0.014-0.6,0.145c0.032,0.059,0.315,0.067,0.392,0.221
		c-0.042,0.007-0.085,0.01-0.126,0.019c-0.153-0.055-0.276-0.039-0.377,0.089c-0.051,0.012-0.101,0.024-0.151,0.037
		c0.017-0.059,0.04-0.125,0.081-0.196c-0.139-0.205-0.217-0.09-0.356-0.294c-0.163,0.329,0.191,0.245,0.207,0.331
		c-0.023,0.077-0.057,0.138-0.09,0.198c-0.222,0.061-0.438,0.133-0.653,0.209c0.016-0.093,0.025-0.189,0.009-0.295
		c-0.246-0.086-0.122,0.419-0.465,0.176c-0.086,0.158,0.042,0.181,0.106,0.244c-0.241,0.098-0.476,0.207-0.706,0.324
		c-0.01,0-0.014-0.004-0.025-0.004c-0.004,0.008,0,0.01-0.002,0.017c-0.173,0.089-0.339,0.19-0.505,0.29
		c-0.015-0.052-0.025-0.103-0.025-0.145c-0.014,0.062-0.011,0.113-0.012,0.167c-0.054,0.033-0.111,0.061-0.164,0.094
		c-0.023-0.04-0.062-0.081-0.141-0.122c-0.028,0.168-0.063,0.328-0.211,0.304c0.024-0.149-0.136-0.182-0.305-0.211
		c-0.075,0.207,0.114,0.247,0.174,0.369c-2.072,1.518-3.431,3.879-3.435,6.501c0,0.195,0.016,0.386,0.029,0.578
		c-0.064,0.043-0.096-0.354-0.215-0.177c0.139,0.141-0.058,0.4,0.042,0.433c0.047-0.016,0.117-0.051,0.182-0.096
		c0.01,0.118,0.027,0.233,0.043,0.349c-0.05-0.023-0.089-0.053-0.122-0.088c0.001,0.217-0.125,0.229-0.16,0.387
		c0.123,0.045,0.166-0.04,0.284-0.005c0.038-0.144-0.029-0.162,0.01-0.216c0.026,0.177,0.049,0.355,0.086,0.529
		c-0.057,0.072-0.115,0.14-0.256,0.075c-0.016,0.25-0.154,0.308-0.244,0.439c0.415,0.162,0.107-0.198,0.419,0.026
		c0.125-0.193-0.067-0.188-0.072-0.299c0.089,0.019,0.089-0.104,0.166-0.104c0.012,0.002,0.016,0.006,0.026,0.009
		c0.042,0.176,0.086,0.352,0.14,0.523c-0.169-0.054-0.386,0.226-0.466,0.46c0.35,0.09,0.413,0.189,0.633,0.007
		c0.089,0.235,0.189,0.465,0.299,0.689c-0.023-0.028-0.052-0.053-0.084-0.076c-0.045,0.2-0.101,0.409,0.108,0.448
		c0.044-0.109,0.049-0.195,0.03-0.266c0.1,0.194,0.207,0.385,0.322,0.57c-0.006,0.016,0.008,0.034,0.034,0.053
		c0.038,0.061,0.076,0.123,0.116,0.182c-0.029,0.082-0.072,0.162-0.103,0.19c0.089,0.023,0.146-0.005,0.203-0.034
		c0.07,0.099,0.148,0.192,0.222,0.288c-0.055,0.084-0.127,0.141-0.182,0.226c0.044,0.01,0.089,0.021,0.134,0.031
		c-0.008,0.038,0.037,0.088,0.067,0.016c-0.002,0,0.082-0.011,0.183-0.016c0.031,0.037,0.057,0.077,0.088,0.113
		c-0.073,0.07-0.095,0.172-0.131,0.217c-0.238-0.155-0.287,0.092-0.501,0.026c0.235,0.1-0.26,0.297,0.073,0.301
		c0.138-0.337,0.332-0.183,0.568-0.011c0.058-0.122,0.091-0.283,0.264-0.222c-0.212,0.195,0.025,0.039,0.127,0.106
		c0.008,0.008,0.016,0.017,0.024,0.025c0.008,0.013,0.017,0.027,0.019,0.049c-0.062,0.083-0.261-0.051-0.299,0.073
		c0.229-0.01,0.041,0.242,0.222,0.262c0.064-0.18,0.235-0.067,0.269,0.063c-0.447,0.139-0.284,0.841,0.016,0.853
		c-0.262-0.278,0.183-0.702,0.362-0.342c-0.126-0.018-0.094,0.219-0.196,0.238c0.126,0.276,0.392,0.109,0.392,0.445
		c0.29,0.095,0.352-0.174,0.6-0.145c0.167,0.193,0.133,0.358-0.058,0.553c0.389,0.061,0.455,0.235,0.393,0.443
		c0.232,0.156,0.171-0.155,0.367-0.056c0.132,0.172-0.18,0.261,0.057,0.367c0.166-0.273,0.437,0.165,0.703,0.021
		c1.467,0.827,2.199,2.419,2.03,4.077c0.331,1.456,0.808,0.49,0.275,2.645c-0.424,1.718-0.198,3.455,1.452,3.519
		c1.251,0.049,2.189-1.962,2.114-3.333c0.207-2.475-0.661-1.497-0.266-3.916c0.059-0.122,0.184-0.135,0.212-0.306
		c-0.297-0.37-0.267-1.275,0.31-1.343c-0.08-0.462,0.335-0.05,0.444-0.393c-0.109-0.052-0.196,0.061-0.202-0.047
		c0.603-0.69,1.62-0.718,2.232-1.394c0.092,0.024,0.155,0.002,0.217-0.021c0.128,0.07,0.085,0.233,0.253,0.129
		c0.147-0.245-0.158-0.207-0.124-0.383c0.325-0.299,0.751-0.422,1.095-0.453c-0.012,0.122-0.145,0.319,0.073,0.299
		c0.049-0.475,0.188-0.481,0.165-1.024C46.843,84.068,46.938,84.124,47.099,84.14z M48.52,81.354
		c-0.044,0.144-0.202,0.106-0.366,0.057c0.155-0.099-0.012-0.132,0.077-0.335C48.361,81.147,48.415,81.267,48.52,81.354z
		 M48.607,76.988c-0.006-0.002-0.008-0.006-0.014-0.008c-0.004-0.07-0.004-0.141-0.01-0.211
		C48.624,76.822,48.654,76.881,48.607,76.988z M48.329,74.517c0.313,0.083,0.03-0.28,0.212-0.304
		c0.375,0.117-0.033,0.217-0.041,0.487c-0.115,0.019-0.278-0.039-0.355,0.043c-0.012-0.035-0.025-0.069-0.039-0.104
		c0.02-0.005,0.035-0.014,0.058-0.017c0.013-0.092-0.052-0.137-0.128-0.173c-0.021-0.052-0.037-0.106-0.059-0.158
		C48.225,74.35,48.543,74.304,48.329,74.517z M47.896,73.639c-0.043,0.057-0.146,0.017-0.221,0.022
		c-0.027-0.052-0.05-0.106-0.079-0.157C47.729,73.528,47.916,73.518,47.896,73.639z M47.301,72.228
		c-0.078,0.151-0.318,0.043-0.294,0.356c0.194,0.097,0.224-0.07,0.418,0.026c-0.031,0.16-0.172,0.144-0.286,0.171
		c-0.08-0.113-0.168-0.221-0.254-0.33C46.954,72.316,47.035,72.198,47.301,72.228z M46.877,71.918
		c-0.016,0.068-0.031,0.134-0.046,0.201c-0.196,0.127-0.102-0.13-0.32-0.144C46.554,71.83,46.713,71.87,46.877,71.918z
		 M46.066,71.447c0.118,0.077-0.097,0.089-0.067-0.015c-0.028-0.015-0.038,0-0.051,0.008c-0.014-0.013-0.029-0.025-0.043-0.038
		c0.016-0.015,0.034-0.027,0.043-0.052C45.999,71.375,45.999,71.432,46.066,71.447z M45.115,70.662
		c-0.043,0.04-0.094,0.027-0.148,0.006c-0.082-0.056-0.166-0.108-0.25-0.16C44.847,70.479,45.084,70.611,45.115,70.662z"/>
	<path fill-rule="evenodd" clip-rule="evenodd" d="M47.104,84.422c0.205,0.051,0.217-0.205,0.45-0.108
		c-0.016,0.087,0.064,0.114,0.021,0.218c-0.038-0.009-0.09,0.037-0.016,0.066c0.103-0.143,0.194-0.302,0.259-0.505
		c-0.217,0.001-0.229-0.125-0.388-0.161C47.321,84.096,47.171,84.193,47.104,84.422z"/>
	<path fill-rule="evenodd" clip-rule="evenodd" d="M44.341,69.423c0.112-0.066,0.21-0.375,0.025-0.419
		c-0.038,0.092-0.137,0.087-0.18,0.17c0.072,0.05,0.136,0.106,0.17,0.181C44.318,69.347,44.267,69.392,44.341,69.423z"/>
	<path fill-rule="evenodd" clip-rule="evenodd" d="M46.221,69.855c-0.107-0.073-0.191-0.122-0.269-0.061
		c0.153,0.054-0.029,0.304-0.078,0.335C46.126,70.257,46.128,69.984,46.221,69.855z"/>
	<path fill-rule="evenodd" clip-rule="evenodd" d="M37.835,68.486c-0.033,0.078-0.084,0.024-0.135-0.031
		c-0.057,0.189-0.093,0.365,0.124,0.382C37.828,68.617,37.896,68.564,37.835,68.486z"/>
	<path fill-rule="evenodd" clip-rule="evenodd" d="M46.929,71.081c0-0.122,0.14-0.149,0.047-0.202
		c-0.187,0.169-0.235-0.231-0.439-0.241C46.526,70.872,46.693,70.999,46.929,71.081z"/>
	<path fill-rule="evenodd" clip-rule="evenodd" d="M48.396,72.693c0.004,0.191-0.169,0.097-0.249,0.155
		c0.043-0.166-0.051-0.538-0.191-0.398c0.116,0.181,0.158,0.468-0.056,0.553c0.342-0.014,0.428-0.054,0.769,0.037
		C48.702,72.849,48.619,72.727,48.396,72.693z"/>
	<path fill-rule="evenodd" clip-rule="evenodd" d="M32.698,72.961c-0.28-0.011-0.554,0.167-0.429,0.325
		C32.348,73.076,32.598,73.137,32.698,72.961z"/>
	<path fill-rule="evenodd" clip-rule="evenodd" d="M49.776,77.752c0.011,0.202-0.135,0.151-0.145,0.32
		c0.279-0.016,0.383-0.109,0.455,0.176c-0.057-0.174,0.231-0.212,0.063-0.268C50.024,78.025,49.818,77.972,49.776,77.752z"/>
	<path fill-rule="evenodd" clip-rule="evenodd" d="M49.476,80.583c0.085,0.139,0.112,0.313,0.34,0.361
		c0.016-0.066,0.031-0.133,0.046-0.202C49.567,80.86,49.757,80.485,49.476,80.583z"/>
	<path fill-rule="evenodd" clip-rule="evenodd" d="M48.669,83.157c-0.145-0.085-0.229-0.503-0.408-0.377
		c0.078,0.033,0.024,0.083-0.031,0.134C48.535,82.862,48.488,83.323,48.669,83.157z"/>
	<path fill-rule="evenodd" clip-rule="evenodd" d="M32.016,81.435c0.013,0.214-0.304,0.36-0.176,0.456
		C32.02,81.736,32.225,81.618,32.016,81.435z"/>
	<path fill-rule="evenodd" clip-rule="evenodd" d="M47.129,84.925c-0.075,0.125-0.325-0.03-0.383,0.124
		c0.049,0.026,0.065,0.075,0.037,0.149c0.187-0.049,0.292,0.226,0.336,0.079C46.885,85.177,47.347,84.998,47.129,84.925z"/>
	<path fill-rule="evenodd" clip-rule="evenodd" d="M32.284,82.417c0.048,0.026,0.132,0.033,0.119,0.098
		c-0.037-0.009-0.088,0.037-0.016,0.067c0.106-0.2,0.062,0.139,0.021,0.217c0.127,0.02,0.234,0.007,0.3-0.073
		c-0.049-0.025-0.065-0.072-0.037-0.149C32.424,82.629,32.492,82.2,32.284,82.417z"/>
	<path fill-rule="evenodd" clip-rule="evenodd" d="M33.09,83.522c-0.125-0.037,0.004-0.233-0.155-0.249
		c-0.06,0.172-0.042,0.295,0.139,0.316c0.143,0.012,0.176-0.149,0.264-0.223C33.124,83.208,33.245,83.586,33.09,83.522z"/>
	<path fill-rule="evenodd" clip-rule="evenodd" d="M31.834,85.285c0.234,0.129,0.164-0.228,0.382-0.124
		c-0.158-0.289,0.305-0.361,0.191-0.523C32.242,84.862,31.815,85.062,31.834,85.285z"/>
	<path fill-rule="evenodd" clip-rule="evenodd" d="M42.917,87.843c0.003,0.356-0.507-0.213-0.367,0.057
		c0.231,0.104,0.284,0.322,0.625,0.356C43.257,88.015,43.074,87.937,42.917,87.843z"/>
	<path fill-rule="evenodd" clip-rule="evenodd" d="M76.601,69.185c0.132-0.244-0.26-0.411-0.305-0.212
		C76.514,68.971,76.382,69.186,76.601,69.185z"/>
	<path fill-rule="evenodd" clip-rule="evenodd" d="M75.897,69.164c-0.135,0.277,0.08,0.334,0.176,0.466
		C76.11,69.414,76.119,69.218,75.897,69.164z"/>
	<path fill-rule="evenodd" clip-rule="evenodd" d="M79.075,71.03c-0.07,0.13-0.242,0.172-0.145,0.32
		C79.163,71.472,79.274,71.081,79.075,71.03z"/>
	<path fill-rule="evenodd" clip-rule="evenodd" d="M65.087,71.55c-0.129,0.076-0.112,0.262-0.01,0.351
		C65.188,71.837,65.257,71.597,65.087,71.55z"/>
	<path fill-rule="evenodd" clip-rule="evenodd" d="M81.378,76.54c-0.209-1.731-1-3.316-2.19-4.57
		c0.063-0.097,0.002-0.226,0.218-0.227c-0.052-0.186-0.268,0.016-0.253-0.129c0.071,0.012,0.072-0.075-0.052-0.083
		c0.002,0.115-0.039,0.192-0.079,0.261c-0.287-0.286-0.598-0.548-0.924-0.793c0.035-0.056,0.087-0.082,0.021-0.119
		c-0.187,0.169-0.235-0.231-0.439-0.241c-0.001,0.022,0.007,0.04,0.009,0.061c-0.258-0.172-0.525-0.331-0.802-0.477
		c-0.027-0.121,0.026-0.291-0.091-0.355c-0.067,0.065-0.12,0.15-0.17,0.231c-0.067-0.033-0.135-0.065-0.204-0.097
		c0.057-0.062,0.115-0.122,0.172-0.182c-0.24-0.099-0.381-0.04-0.517,0.026c-0.12-0.048-0.244-0.088-0.366-0.132
		c-0.001-0.008-0.005-0.022-0.006-0.029c-0.007,0.006-0.013,0.013-0.02,0.02c-0.115-0.041-0.228-0.088-0.345-0.125
		c-0.028-0.062-0.054-0.126-0.058-0.204c-0.397-0.125-0.795,0.087-0.941-0.217c0.18,0.096,0.591-0.13,0.729-0.398
		c-0.049-0.026-0.132-0.033-0.119-0.097c-0.22-0.016-0.341,0.128-0.584,0.076c0.004,0.208,0.144,0.262-0.01,0.351
		c0.037-0.229-0.446-0.325-0.16-0.532c-0.317-0.099-0.407,0.316-0.47-0.107c-0.195,0.08-0.124,0.086-0.062,0.268
		c-0.235,0.226-0.353-0.208-0.435,0.042c0.264-0.049-0.012,0.238,0.155,0.249c-0.008-0.257,0.333-0.063,0.269,0.061
		c-0.293-0.08-0.188,0.025-0.143,0.15c-0.274-0.025-0.551-0.042-0.832-0.042c-0.005,0-0.01,0.001-0.016,0.001
		c0.018-0.012,0.035-0.02,0.056-0.041c-0.088-0.061-0.14-0.143-0.155-0.249c0.115,0.031,0.184-0.012,0.232-0.086
		c-0.247-0.087,0.104-0.372-0.243-0.482c-0.019,0.094-0.065,0.141-0.113,0.186c0.122,0.019,0.141,0.103,0.087,0.233
		c-0.283-0.146-0.24,0.229-0.362,0.341c-0.014,0.063,0.035,0.087,0.069,0.12c-0.031,0.001-0.063,0.002-0.093,0.004
		c-0.121-0.102,0.029-0.409,0.102-0.459c-0.354,0.029-0.284-0.205-0.341-0.361c-0.027,0.048-0.032,0.132-0.098,0.118
		c0.123,0.254,0.02,0.291-0.124,0.537c0.018,0.098,0.218,0.079,0.23,0.178c-0.009,0.001-0.018,0-0.026,0.001
		c-0.212-0.151-0.315,0.079-0.437-0.09c0.071-0.132,0.211-0.153,0.227-0.372c-0.26,0.008-0.273-0.475-0.49-0.325
		c0.191,0.313-0.206,0.61,0.16,0.532c-0.017,0.217-0.213,0.149-0.331,0.207c-0.013-0.13-0.12-0.493-0.274-0.346
		c0.085,0.08,0.189,0.149,0.14,0.315c-0.365-0.108-0.42-0.414-0.346-0.647c-0.329,0.245-0.409-0.318-0.62-0.071
		c0.102,0.146,0.396,0.174,0.325,0.427c-0.03,0.104-0.183,0.014-0.181,0.172c0.052,0.185,0.231-0.075,0.253,0.129
		c-0.331,0.021-0.427,0.42-0.796,0.382c0.094-0.157,0.284-0.159,0.414-0.259c-0.085-0.082-0.189-0.149-0.14-0.314
		c-0.261,0.066-0.509,0.014-0.6,0.145c0.038,0.069,0.444,0.055,0.424,0.309c-0.253-0.132-0.445-0.172-0.583,0.078
		c0.247-0.156,0.383,0.092,0.656,0.223c-0.237-0.114-0.367-0.054-0.399,0.162c-0.072,0.03-0.141,0.066-0.211,0.098
		c-0.027,0.005-0.05,0.015-0.087,0.004c0.091-0.389-0.313,0.127-0.32-0.146c0.295-0.064,0.169-0.262,0.341-0.558
		c-0.139-0.205-0.218-0.09-0.357-0.294c-0.163,0.329,0.191,0.245,0.207,0.331c-0.118,0.395-0.397,0.528-0.604,0.78
		c0.071,0.231,0.25-0.136,0.269,0.063c0.001,0.031,0.001,0.058,0.001,0.085c-0.049,0.026-0.095,0.057-0.144,0.084
		c-0.021-0.052-0.069-0.087-0.157-0.098c0.034,0.236-0.229,0.002-0.196,0.238c0.006,0.011,0.022,0.029,0.034,0.045
		c-0.033,0.02-0.067,0.038-0.1,0.058c-0.082-0.368,0.231-0.685,0.164-1.143c-0.247-0.086-0.122,0.419-0.465,0.176
		c-0.129,0.235,0.228,0.165,0.124,0.384c-0.375-0.056-0.199,0.278-0.294,0.354c-0.219-0.015-0.209-0.175-0.455-0.175
		c-0.109,0.203,0.201,0.144,0.14,0.316c-0.221-0.078-0.313,0.05-0.449,0.108c0.21-0.041,0.343,0.069,0.356,0.295
		c-0.266,0.261-0.576-0.289-0.578-0.557c-0.086,0.378,0.122,0.575,0.067,0.935c-0.229,0.027-0.139-0.145-0.238-0.196
		c-0.343,0.141-0.218,0.458-0.61,0.495c0.334,0.249-0.248,0.487-0.253,0.791c-0.205-0.134-0.53,0.228-0.884,0.149
		c0.134,0.137,0.065,0.188-0.01,0.351c0.049,0.027,0.132,0.033,0.119,0.099c0.127,0.051,0.153-0.061,0.232-0.088
		c-0.005,0.042-0.008,0.082,0.052,0.083c-0.043,0.115-0.151,0.127-0.299,0.073c0.042,0.275,0.097,0.282-0.109,0.469
		c0.148,0.127,0.235-0.274,0.284-0.005c-0.158,0.141-0.314,0.287-0.274,0.574c-0.172-0.09-0.166,0.103-0.299,0.073
		c0.208-0.128-0.017-0.282,0.041-0.487c-0.25-0.016-0.307-0.153-0.438-0.242c-0.058,0.091-0.138,0.146-0.196,0.236
		c0.195,0.099,0.171-0.155,0.366-0.055c-0.05,0.126,0.06,0.153,0.088,0.231c-0.439-0.11-0.1,0.276-0.175,0.456
		c-0.285,0.001-0.292-0.464-0.491-0.325c-0.076,0.412-0.145,1.131,0.372,1.147c-0.12-0.005,0.014,0.222-0.196,0.236
		c-0.032-0.207-0.266-0.198-0.455-0.176c-0.048,0.183,0.08,0.162-0.062,0.27c0.369,0.363,0.486,0.181,0.909,0.351
		c-0.224,0.01-0.343,0.186-0.496,0.311c-0.01-0.097-0.129-0.409-0.305-0.212c0.009,0.165,0.283,0.168,0.273,0.346
		c-0.041,0.363-0.235,0.481-0.475,0.526c-0.001-0.217,0.161-0.17,0.16-0.388c-0.11-0.052-0.195,0.061-0.201-0.045
		c0.015-0.068,0.072-0.068,0.098-0.12c-0.166-0.05-0.234,0.056-0.315,0.139c0.256,0.196,0.281,0.516-0.037,0.77
		c0.272,0.176,0.3,0.502,0.548,0.694c-0.007,0.379-0.088,0.276-0.207,0.589c0.194,0.089,0.211,0.289,0.408,0.377
		c-0.112-0.026-0.224-0.052-0.336-0.078c-0.044,0.219,0.181,0.271,0.258,0.414c-0.155-0.064-0.174,0.089-0.352-0.01
		c0.01-0.179-0.023-0.33-0.108-0.45c-0.057,0.153-0.196,0.247-0.093,0.403c-0.3-0.143-0.237,0.295-0.533,0.16
		c-0.016,0.25-0.153,0.308-0.243,0.439c0.415,0.162,0.106-0.198,0.418,0.026c0.126-0.193-0.068-0.188-0.072-0.299
		c0.088,0.019,0.088-0.104,0.165-0.104c0.386,0.066-0.147,0.371,0.29,0.28c-0.021,0.088-0.041,0.179-0.062,0.268
		c-0.173-0.164-0.438,0.182-0.527,0.444c0.353,0.091,0.413,0.191,0.635,0.005c-0.062-0.078,0.04-0.149-0.072-0.299
		c0.104,0.011,0.243,0.08,0.285-0.007c-0.049-0.026-0.132-0.031-0.119-0.097c0.171,0.047,0.312,0.113,0.372,0.228
		c-0.116-0.031-0.212-0.033-0.284,0.005c-0.1,0.254-0.032,0.403,0.01,0.568c0.167,0.076,0.319-0.337,0.434-0.042
		c-0.183,0.064-0.271,0.045-0.211,0.306c0.545-0.033,0.423,0.561,0.914,0.634c-0.179-0.04-0.358-0.082-0.538-0.124
		c0.036,0.139-0.253,0.177-0.062,0.269c0.243-0.186,0.074,0.275-0.011,0.351c0.207,0.054,0.241-0.167,0.501-0.026
		c0,0.306-0.161,0.354-0.258,0.506l0.135,0.031c-0.009,0.038,0.037,0.088,0.067,0.016c-0.005,0,0.541-0.103,0.672,0.154
		c-0.027,0.049-0.032,0.132-0.098,0.12c-0.264,0.049,0.012-0.238-0.155-0.248c-0.212,0.024-0.226,0.222-0.28,0.288
		c-0.237-0.155-0.287,0.092-0.501,0.026c0.235,0.1-0.259,0.297,0.073,0.301c0.139-0.337,0.332-0.183,0.568-0.011
		c0.058-0.122,0.091-0.283,0.264-0.222c-0.257,0.236,0.148-0.047,0.17,0.181c-0.062,0.083-0.261-0.051-0.3,0.073
		c0.23-0.01,0.041,0.242,0.222,0.262c0.064-0.18,0.235-0.067,0.269,0.063c-0.447,0.139-0.283,0.841,0.017,0.853
		c-0.263-0.278,0.183-0.702,0.361-0.342c-0.126-0.018-0.094,0.219-0.197,0.238c0.127,0.276,0.393,0.109,0.393,0.445
		c0.291,0.095,0.352-0.174,0.6-0.145c0.167,0.193,0.133,0.358-0.057,0.553c0.388,0.061,0.454,0.235,0.393,0.443
		c0.231,0.156,0.171-0.155,0.366-0.056c0.133,0.172-0.179,0.261,0.057,0.367c0.166-0.273,0.438,0.165,0.703,0.021
		c0.167,0.093,0.321,0.2,0.469,0.313c1.378-0.231,2.767-0.431,4.163-0.598c0.078,0.003,0.155,0.014,0.234,0.016
		c0.833,0.016,1.638-0.083,2.404-0.269c0.566-0.051,1.128-0.121,1.697-0.161c-0.009-0.02-0.022-0.037-0.017-0.066
		c0.325-0.299,0.751-0.422,1.095-0.453c-0.012,0.122-0.145,0.319,0.073,0.299c0.048-0.455,0.173-0.492,0.164-0.969
		c0.013-0.009,0.026-0.017,0.039-0.026c0.063,0.059,0.146,0.104,0.283,0.118c0.005-0.188,0.204-0.306,0.184-0.477
		c0.06-0.048,0.122-0.095,0.18-0.145c0.041,0.006,0.079,0.008,0.127,0.026c0.09,0.235-0.213,0.358,0.108,0.448
		c0.097-0.267-0.026-0.404-0.17-0.527c0.084-0.074,0.162-0.154,0.243-0.231c0.061,0.022,0.116,0.034,0.113-0.046
		c-0.017-0.002-0.026-0.015-0.032-0.033c0.243-0.237,0.472-0.485,0.683-0.748c0.085,0.007,0.139-0.036,0.238-0.006
		c0.097-0.16,0.036-0.221-0.012-0.29c0.031-0.042,0.059-0.086,0.089-0.128c0.056,0.032,0.111,0.034,0.114-0.103
		c0-0.025-0.006-0.035-0.013-0.043c0.032-0.048,0.068-0.094,0.099-0.144c0.104,0.068,0.211,0.111,0.363,0.077
		c0.066-0.193-0.09-0.257-0.252-0.257c0.148-0.248,0.282-0.503,0.404-0.766c0.049,0.087,0.111,0.166,0.252,0.196
		c0.015-0.066,0.03-0.133,0.046-0.202c-0.203,0.08-0.183-0.066-0.237-0.137c0.386-0.878,0.625-1.832,0.667-2.841
		c0.015-0.357-0.003-0.708-0.038-1.055c0.068-0.042,0.126-0.084,0.083-0.172C81.448,76.603,81.415,76.58,81.378,76.54z
		 M63.15,77.188c0.025-0.113,0.052-0.224,0.077-0.335C63.432,76.899,63.414,77.31,63.15,77.188z M63.18,79.812
		c-0.059-0.059-0.034-0.17-0.17-0.181c0.103-0.24-0.095-0.436,0.228-0.372c-0.074,0.163-0.175,0.234,0.072,0.301
		C63.29,79.682,63.194,79.682,63.18,79.812z M72.369,69.127c0.051,0.023,0.09,0.043,0.125,0.06c-0.03,0-0.06,0.004-0.09,0.005
		C72.391,69.171,72.376,69.155,72.369,69.127z M70.415,69.313c0.242-0.155,0.356-0.065,0.439,0.066
		c-0.065,0.014-0.129,0.034-0.194,0.049C70.614,69.378,70.547,69.334,70.415,69.313z M63.641,74.753
		c0.177-0.356,0.032-0.176-0.139-0.315c0.119-0.055,0.209-0.156,0.382-0.123c-0.029,0.075-0.013,0.122,0.036,0.149
		c0.068-0.104,0.229-0.064,0.315-0.139c-0.006-0.108-0.092,0.007-0.201-0.047c0.043-0.144,0.202-0.104,0.366-0.057
		c-0.037,0.118,0.05,0.162,0.005,0.285c-0.328-0.219-0.227,0.25-0.517,0.092c-0.046,0.144,0.006,0.228,0.155,0.248
		C63.933,75.021,63.763,74.761,63.641,74.753z M63.625,80.338c-0.181-0.019-0.199-0.142-0.14-0.314
		c0.113,0.025,0.224,0.052,0.336,0.078C63.789,80.236,63.618,80.146,63.625,80.338z"/>
	<path fill-rule="evenodd" clip-rule="evenodd" d="M63.124,75.766c0.163-0.318-0.354-0.378-0.186-0.113
		C63.063,75.441,62.916,75.844,63.124,75.766z"/>
	<path fill-rule="evenodd" clip-rule="evenodd" d="M62.845,76.057c0.173,0.031,0.283-0.039,0.331-0.207
		c-0.221-0.079-0.313,0.05-0.45,0.107C62.774,75.985,62.858,75.99,62.845,76.057z"/>
	<path fill-rule="evenodd" clip-rule="evenodd" d="M61.992,76.072c-0.085-0.044-0.106-0.125-0.253-0.13
		c-0.059,0.172-0.042,0.295,0.14,0.316C61.896,76.165,61.944,76.117,61.992,76.072z"/>
	<path fill-rule="evenodd" clip-rule="evenodd" d="M83.338,82.909c0.031,0.049,0.282,0.231,0.335,0.078
		C83.658,82.843,83.417,82.702,83.338,82.909z"/>
	<path fill-rule="evenodd" clip-rule="evenodd" d="M61.842,77.947c-0.031,0.172,0.038,0.283,0.207,0.33
		c0.01-0.168,0.157-0.118,0.145-0.32C62.043,77.9,61.933,77.909,61.842,77.947z"/>
	<path fill-rule="evenodd" clip-rule="evenodd" d="M62.493,78.804c0.048-0.181-0.081-0.16,0.062-0.268
		c-0.093-0.019-0.14-0.066-0.187-0.115c0.001,0.217-0.125,0.229-0.16,0.387C62.333,78.854,62.375,78.77,62.493,78.804z"/>
	<path fill-rule="evenodd" clip-rule="evenodd" d="M81.245,83.7c0.08-0.204,0.011-0.313-0.207-0.33
		C80.958,83.573,81.027,83.682,81.245,83.7z"/>
	<path fill-rule="evenodd" clip-rule="evenodd" d="M79.348,83.333c0.021-0.09,0.042-0.179,0.062-0.27
		c-0.067-0.016-0.134-0.031-0.201-0.045C79.15,83.189,79.108,83.349,79.348,83.333z"/>
	<path fill-rule="evenodd" clip-rule="evenodd" d="M79.395,84.051c0.01-0.137,0.121-0.111,0.18-0.17
		c-0.312-0.002-0.178-0.03-0.387-0.16C79.09,83.934,79.244,83.992,79.395,84.051z"/>
	<path fill-rule="evenodd" clip-rule="evenodd" d="M62.942,80.535c-0.128,0.011-0.287-0.029-0.366,0.058
		c0.069,0.021,0.032,0.099-0.083,0.052c-0.065,0.41,0.427,0.158,0.553,0.057C62.965,80.674,62.891,80.645,62.942,80.535z"/>
	<path fill-rule="evenodd" clip-rule="evenodd" d="M79.741,84.697c0.342-0.022,0.102,0.32,0.424,0.31
		c-0.037-0.226-0.148-0.405-0.294-0.563C79.828,84.53,79.745,84.549,79.741,84.697z"/>
	<path fill-rule="evenodd" clip-rule="evenodd" d="M63.149,80.867c-0.045,0.2-0.101,0.409,0.108,0.448
		C63.349,81.086,63.281,80.957,63.149,80.867z"/>
	<path fill-rule="evenodd" clip-rule="evenodd" d="M79.121,84.625c-0.061,0.172,0.042,0.243,0.222,0.264
		C79.404,84.716,79.301,84.647,79.121,84.625z"/>
	<path fill-rule="evenodd" clip-rule="evenodd" d="M64.001,83.611c-0.088,0.254-0.271,0.127-0.351-0.01
		c-0.014,0.162,0.002,0.304,0.124,0.382C63.868,83.941,64.338,83.753,64.001,83.611z"/>
	<path fill-rule="evenodd" clip-rule="evenodd" d="M64.962,84.965c0.077-0.136,0.348-0.36,0.108-0.471
		C64.96,84.729,64.756,84.774,64.962,84.965z"/>
	<path fill-rule="evenodd" clip-rule="evenodd" d="M66.605,86.122c0.204,0.05,0.356,0.018,0.449-0.109
		c-0.216,0.002-0.17-0.162-0.387-0.16C66.646,85.943,66.626,86.032,66.605,86.122z"/>
	<path fill-rule="evenodd" clip-rule="evenodd" d="M78.248,84.422c0.204,0.051,0.216-0.205,0.449-0.108
		c-0.016,0.087,0.065,0.114,0.021,0.218c-0.038-0.009-0.089,0.037-0.016,0.066c0.103-0.143,0.194-0.302,0.258-0.505
		c-0.216,0.001-0.229-0.125-0.387-0.161C78.465,84.096,78.315,84.193,78.248,84.422z"/>
	<path fill-rule="evenodd" clip-rule="evenodd" d="M75.484,69.423c0.112-0.066,0.21-0.375,0.026-0.419
		c-0.039,0.092-0.137,0.087-0.181,0.17c0.072,0.05,0.136,0.106,0.171,0.181C75.463,69.347,75.411,69.392,75.484,69.423z"/>
	<path fill-rule="evenodd" clip-rule="evenodd" d="M77.365,69.855c-0.108-0.073-0.191-0.122-0.269-0.061
		c0.154,0.054-0.029,0.304-0.077,0.335C77.27,70.257,77.272,69.984,77.365,69.855z"/>
	<path fill-rule="evenodd" clip-rule="evenodd" d="M68.979,68.486c-0.033,0.078-0.084,0.024-0.135-0.031
		c-0.057,0.189-0.092,0.365,0.124,0.382C68.971,68.617,69.04,68.564,68.979,68.486z"/>
	<path fill-rule="evenodd" clip-rule="evenodd" d="M65.847,71.018c0.16-0.09,0.809-0.311,0.341-0.558
		c-0.029,0.168-0.063,0.328-0.212,0.304c0.024-0.149-0.136-0.182-0.305-0.211c-0.082,0.224,0.154,0.248,0.19,0.397
		C65.76,70.921,65.771,71.134,65.847,71.018z"/>
	<path fill-rule="evenodd" clip-rule="evenodd" d="M64.482,73.25c0.022-0.118,0.064-0.205,0.13-0.251
		c-0.219,0.001-0.087-0.216-0.305-0.212c-0.007,0.082-0.056,0.188,0.021,0.217c0.027-0.05,0.033-0.132,0.099-0.12
		C64.436,73.012,64.396,73.17,64.482,73.25z"/>
	<path fill-rule="evenodd" clip-rule="evenodd" d="M63.842,72.961c-0.28-0.011-0.554,0.167-0.429,0.325
		C63.492,73.076,63.741,73.137,63.842,72.961z"/>
	<path fill-rule="evenodd" clip-rule="evenodd" d="M62.565,78.185c0.179,0.11,0.228,0.028,0.072,0.299
		c0.067,0.016,0.135,0.032,0.203,0.047c-0.026-0.226,0.012-0.25,0.165-0.104c-0.01-0.264-0.104-0.208,0.041-0.485
		c-0.468-0.194-0.111-0.149-0.196,0.238C62.747,78.168,62.607,78.099,62.565,78.185z"/>
	<path fill-rule="evenodd" clip-rule="evenodd" d="M62.508,77.819c-0.122,0.523-0.129-0.225-0.284,0.005
		c0.138,0.141-0.058,0.4,0.041,0.433C62.413,78.208,62.779,77.982,62.508,77.819z"/>
	<path fill-rule="evenodd" clip-rule="evenodd" d="M79.813,83.157c-0.145-0.085-0.23-0.503-0.408-0.377
		c0.078,0.033,0.024,0.083-0.032,0.134C79.678,82.862,79.632,83.323,79.813,83.157z"/>
	<path fill-rule="evenodd" clip-rule="evenodd" d="M63.159,81.435c0.014,0.214-0.304,0.36-0.176,0.456
		C63.164,81.736,63.369,81.618,63.159,81.435z"/>
	<path fill-rule="evenodd" clip-rule="evenodd" d="M63.428,82.417c0.048,0.026,0.132,0.033,0.119,0.098
		c-0.037-0.009-0.088,0.037-0.016,0.067c0.105-0.2,0.062,0.139,0.021,0.217c0.127,0.02,0.235,0.007,0.3-0.073
		c-0.049-0.025-0.065-0.072-0.037-0.149C63.568,82.629,63.635,82.2,63.428,82.417z"/>
	<path fill-rule="evenodd" clip-rule="evenodd" d="M64.234,83.522c-0.125-0.037,0.004-0.233-0.155-0.249
		c-0.06,0.172-0.042,0.295,0.14,0.316c0.143,0.012,0.175-0.149,0.263-0.223C64.268,83.208,64.389,83.586,64.234,83.522z"/>
	<path fill-rule="evenodd" clip-rule="evenodd" d="M62.979,85.285c0.234,0.129,0.165-0.228,0.382-0.124
		c-0.158-0.289,0.305-0.361,0.19-0.523C63.387,84.862,62.959,85.062,62.979,85.285z"/>
</g>
</svg>
